<mxfile type="github" version="13.7.7" host="app.diagrams.net" modified="2020-10-05T11:53:35.609Z" agent="5.0 (Windows NT 10.0; Win64; x64) AppleWebKit/537.36 (KHTML, like Gecko) Chrome/64.0.3282.140 Safari/537.36 Edge/18.17763" etag="bRzZFOWVKAyJFZnrmPDU">
  <diagram id="74e2e168-ea6b-b213-b513-2b3c1d86103e" name="Page-1">
    <mxGraphModel grid="1" background="none" dx="868" dy="480" gridSize="10" guides="1" tooltips="1" connect="1" arrows="1" fold="1" page="1" pageScale="1" pageWidth="1100" pageHeight="850" math="0" shadow="0">
      <root>
        <mxCell id="0" />
        <mxCell id="1" parent="0" />
        <mxCell id="77e6c97f196da883-1" value="Router" parent="1" vertex="1" style="swimlane;html=1;childLayout=stackLayout;startSize=20;rounded=0;shadow=0;labelBackgroundColor=none;strokeWidth=1;fontFamily=Verdana;fontSize=8;align=center;">
          <mxGeometry as="geometry" x="69" y="40" width="960" height="750" />
        </mxCell>
        <mxCell id="77e6c97f196da883-2" value="MJ" parent="77e6c97f196da883-1" vertex="1" style="swimlane;html=1;startSize=20;">
          <mxGeometry as="geometry" y="20" width="160" height="730" />
        </mxCell>
        <mxCell id="77e6c97f196da883-8" value="" parent="77e6c97f196da883-2" vertex="1" style="rounded=1;whiteSpace=wrap;html=1;shadow=0;labelBackgroundColor=none;strokeWidth=1;fontFamily=Verdana;fontSize=8;align=center;">
          <mxGeometry as="geometry" x="20" y="65" width="100" height="60" />
        </mxCell>
        <mxCell id="77e6c97f196da883-9" value="" parent="77e6c97f196da883-2" vertex="1" style="rounded=1;whiteSpace=wrap;html=1;shadow=0;labelBackgroundColor=none;strokeWidth=1;fontFamily=Verdana;fontSize=8;align=center;">
          <mxGeometry as="geometry" x="20" y="155" width="100" height="60" />
        </mxCell>
        <mxCell id="77e6c97f196da883-10" value="" parent="77e6c97f196da883-2" vertex="1" style="rounded=1;whiteSpace=wrap;html=1;shadow=0;labelBackgroundColor=none;strokeWidth=1;fontFamily=Verdana;fontSize=8;align=center;">
          <mxGeometry as="geometry" x="30" y="560" width="100" height="60" />
        </mxCell>
        <mxCell id="77e6c97f196da883-26" parent="77e6c97f196da883-1" style="edgeStyle=orthogonalEdgeStyle;rounded=1;html=1;labelBackgroundColor=none;startArrow=none;startFill=0;startSize=5;endArrow=classicThin;endFill=1;endSize=5;jettySize=auto;orthogonalLoop=1;strokeWidth=1;fontFamily=Verdana;fontSize=8" edge="1" source="77e6c97f196da883-8" target="77e6c97f196da883-11">
          <mxGeometry as="geometry" relative="1" />
        </mxCell>
        <mxCell id="77e6c97f196da883-27" parent="77e6c97f196da883-1" style="edgeStyle=orthogonalEdgeStyle;rounded=1;html=1;labelBackgroundColor=none;startArrow=none;startFill=0;startSize=5;endArrow=classicThin;endFill=1;endSize=5;jettySize=auto;orthogonalLoop=1;strokeWidth=1;fontFamily=Verdana;fontSize=8" edge="1" source="77e6c97f196da883-11" target="77e6c97f196da883-9">
          <mxGeometry as="geometry" relative="1">
            <Array as="points">
              <mxPoint x="240" y="155" />
              <mxPoint x="70" y="155" />
            </Array>
          </mxGeometry>
        </mxCell>
        <mxCell id="77e6c97f196da883-28" parent="77e6c97f196da883-1" style="edgeStyle=orthogonalEdgeStyle;rounded=1;html=1;labelBackgroundColor=none;startArrow=none;startFill=0;startSize=5;endArrow=classicThin;endFill=1;endSize=5;jettySize=auto;orthogonalLoop=1;strokeWidth=1;fontFamily=Verdana;fontSize=8" edge="1" source="77e6c97f196da883-9" target="77e6c97f196da883-12">
          <mxGeometry as="geometry" relative="1" />
        </mxCell>
        <mxCell id="77e6c97f196da883-30" parent="77e6c97f196da883-1" style="edgeStyle=orthogonalEdgeStyle;rounded=1;html=1;labelBackgroundColor=none;startArrow=none;startFill=0;startSize=5;endArrow=classicThin;endFill=1;endSize=5;jettySize=auto;orthogonalLoop=1;strokeWidth=1;fontFamily=Verdana;fontSize=8" edge="1" source="77e6c97f196da883-13" target="77e6c97f196da883-9">
          <mxGeometry as="geometry" relative="1" />
        </mxCell>
        <mxCell id="77e6c97f196da883-31" parent="77e6c97f196da883-1" style="edgeStyle=orthogonalEdgeStyle;rounded=1;html=1;labelBackgroundColor=none;startArrow=none;startFill=0;startSize=5;endArrow=classicThin;endFill=1;endSize=5;jettySize=auto;orthogonalLoop=1;strokeWidth=1;fontFamily=Verdana;fontSize=8" edge="1" source="77e6c97f196da883-16" target="77e6c97f196da883-9">
          <mxGeometry as="geometry" relative="1" />
        </mxCell>
        <mxCell id="77e6c97f196da883-32" parent="77e6c97f196da883-1" style="edgeStyle=orthogonalEdgeStyle;rounded=1;html=1;labelBackgroundColor=none;startArrow=none;startFill=0;startSize=5;endArrow=classicThin;endFill=1;endSize=5;jettySize=auto;orthogonalLoop=1;strokeWidth=1;fontFamily=Verdana;fontSize=8" edge="1" source="77e6c97f196da883-20" target="77e6c97f196da883-9">
          <mxGeometry as="geometry" relative="1">
            <Array as="points">
              <mxPoint x="20" y="690" />
              <mxPoint x="20" y="370" />
              <mxPoint x="70" y="370" />
            </Array>
          </mxGeometry>
        </mxCell>
        <mxCell id="77e6c97f196da883-33" parent="77e6c97f196da883-1" style="edgeStyle=orthogonalEdgeStyle;rounded=1;html=1;labelBackgroundColor=none;startArrow=none;startFill=0;startSize=5;endArrow=classicThin;endFill=1;endSize=5;jettySize=auto;orthogonalLoop=1;strokeWidth=1;fontFamily=Verdana;fontSize=8" edge="1" source="77e6c97f196da883-13" target="77e6c97f196da883-15">
          <mxGeometry as="geometry" relative="1" />
        </mxCell>
        <mxCell id="77e6c97f196da883-39" parent="77e6c97f196da883-1" style="edgeStyle=orthogonalEdgeStyle;rounded=1;html=1;labelBackgroundColor=none;startArrow=none;startFill=0;startSize=5;endArrow=classicThin;endFill=1;endSize=5;jettySize=auto;orthogonalLoop=1;strokeWidth=1;fontFamily=Verdana;fontSize=8" edge="1" source="77e6c97f196da883-20">
          <mxGeometry as="geometry" relative="1">
            <mxPoint as="targetPoint" x="670" y="690" />
          </mxGeometry>
        </mxCell>
        <mxCell id="77e6c97f196da883-40" parent="77e6c97f196da883-1" style="edgeStyle=orthogonalEdgeStyle;rounded=1;html=1;labelBackgroundColor=none;startArrow=none;startFill=0;startSize=5;endArrow=classicThin;endFill=1;endSize=5;jettySize=auto;orthogonalLoop=1;strokeWidth=1;fontFamily=Verdana;fontSize=8" edge="1">
          <mxGeometry as="geometry" relative="1">
            <mxPoint as="sourcePoint" x="770.0000000000002" y="690" />
            <mxPoint as="targetPoint" x="829.9999999999998" y="690" />
          </mxGeometry>
        </mxCell>
        <mxCell id="107ba76e4e335f99-1" parent="77e6c97f196da883-1" style="edgeStyle=orthogonalEdgeStyle;rounded=1;html=1;labelBackgroundColor=none;startArrow=none;startFill=0;startSize=5;endArrow=classicThin;endFill=1;endSize=5;jettySize=auto;orthogonalLoop=1;strokeWidth=1;fontFamily=Verdana;fontSize=8" edge="1" source="77e6c97f196da883-17">
          <mxGeometry as="geometry" relative="1">
            <mxPoint as="targetPoint" x="670" y="450" />
          </mxGeometry>
        </mxCell>
        <mxCell id="107ba76e4e335f99-2" parent="77e6c97f196da883-1" style="edgeStyle=orthogonalEdgeStyle;rounded=1;html=1;labelBackgroundColor=none;startArrow=none;startFill=0;startSize=5;endArrow=classicThin;endFill=1;endSize=5;jettySize=auto;orthogonalLoop=1;strokeWidth=1;fontFamily=Verdana;fontSize=8" edge="1" target="77e6c97f196da883-14">
          <mxGeometry as="geometry" relative="1">
            <Array as="points">
              <mxPoint x="660" y="610" />
              <mxPoint x="660" y="550" />
              <mxPoint x="400" y="550" />
            </Array>
            <mxPoint as="sourcePoint" x="670" y="610.0344827586207" />
          </mxGeometry>
        </mxCell>
        <mxCell id="107ba76e4e335f99-3" parent="77e6c97f196da883-1" style="edgeStyle=orthogonalEdgeStyle;rounded=1;html=1;labelBackgroundColor=none;startArrow=none;startFill=0;startSize=5;endArrow=classicThin;endFill=1;endSize=5;jettySize=auto;orthogonalLoop=1;strokeColor=#000000;strokeWidth=1;fontFamily=Verdana;fontSize=8;fontColor=#000000;" edge="1" target="77e6c97f196da883-19">
          <mxGeometry as="geometry" relative="1">
            <mxPoint as="sourcePoint" x="670" y="610.0000000000001" />
          </mxGeometry>
        </mxCell>
        <mxCell id="107ba76e4e335f99-4" parent="77e6c97f196da883-1" style="edgeStyle=orthogonalEdgeStyle;rounded=1;html=1;labelBackgroundColor=none;startArrow=none;startFill=0;startSize=5;endArrow=classicThin;endFill=1;endSize=5;jettySize=auto;orthogonalLoop=1;strokeWidth=1;fontFamily=Verdana;fontSize=8" edge="1" target="77e6c97f196da883-10">
          <mxGeometry as="geometry" relative="1">
            <Array as="points">
              <mxPoint x="660" y="610" />
              <mxPoint x="660" y="550" />
              <mxPoint x="80" y="550" />
            </Array>
            <mxPoint as="sourcePoint" x="670" y="610.0344827586207" />
          </mxGeometry>
        </mxCell>
        <mxCell id="107ba76e4e335f99-5" parent="77e6c97f196da883-1" style="edgeStyle=orthogonalEdgeStyle;rounded=1;html=1;labelBackgroundColor=none;startArrow=none;startFill=0;startSize=5;endArrow=classicThin;endFill=1;endSize=5;jettySize=auto;orthogonalLoop=1;strokeWidth=1;fontFamily=Verdana;fontSize=8" edge="1" source="77e6c97f196da883-10" target="77e6c97f196da883-19">
          <mxGeometry as="geometry" relative="1">
            <Array as="points">
              <mxPoint x="80" y="650" />
              <mxPoint x="490" y="650" />
              <mxPoint x="490" y="610" />
            </Array>
          </mxGeometry>
        </mxCell>
        <mxCell id="107ba76e4e335f99-6" parent="77e6c97f196da883-1" style="edgeStyle=orthogonalEdgeStyle;rounded=1;html=1;labelBackgroundColor=none;startArrow=none;startFill=0;startSize=5;endArrow=classicThin;endFill=1;endSize=5;jettySize=auto;orthogonalLoop=1;strokeWidth=1;fontFamily=Verdana;fontSize=8" edge="1" source="77e6c97f196da883-14" target="77e6c97f196da883-19">
          <mxGeometry as="geometry" relative="1" />
        </mxCell>
        <mxCell id="77e6c97f196da883-3" value="PEA" parent="77e6c97f196da883-1" vertex="1" style="swimlane;html=1;startSize=20;">
          <mxGeometry as="geometry" x="160" y="20" width="160" height="730" />
        </mxCell>
        <mxCell id="77e6c97f196da883-11" value="" parent="77e6c97f196da883-3" vertex="1" style="rounded=1;whiteSpace=wrap;html=1;shadow=0;labelBackgroundColor=none;strokeWidth=1;fontFamily=Verdana;fontSize=8;align=center;">
          <mxGeometry as="geometry" x="30" y="65" width="100" height="60" />
        </mxCell>
        <mxCell id="77e6c97f196da883-4" value="Lane 3" parent="77e6c97f196da883-1" vertex="1" style="swimlane;html=1;startSize=20;">
          <mxGeometry as="geometry" x="320" y="20" width="160" height="730" />
        </mxCell>
        <mxCell id="77e6c97f196da883-12" value="" parent="77e6c97f196da883-4" vertex="1" style="rounded=1;whiteSpace=wrap;html=1;shadow=0;labelBackgroundColor=none;strokeWidth=1;fontFamily=Verdana;fontSize=8;align=center;">
          <mxGeometry as="geometry" x="30" y="155" width="100" height="60" />
        </mxCell>
        <mxCell id="77e6c97f196da883-13" value="" parent="77e6c97f196da883-4" vertex="1" style="rhombus;whiteSpace=wrap;html=1;rounded=0;shadow=0;labelBackgroundColor=none;strokeWidth=1;fontFamily=Verdana;fontSize=8;align=center;">
          <mxGeometry as="geometry" x="40" y="240" width="80" height="60" />
        </mxCell>
        <mxCell id="77e6c97f196da883-14" value="" parent="77e6c97f196da883-4" vertex="1" style="rounded=1;whiteSpace=wrap;html=1;shadow=0;labelBackgroundColor=none;strokeWidth=1;fontFamily=Verdana;fontSize=8;align=center;">
          <mxGeometry as="geometry" x="30" y="560" width="100" height="60" />
        </mxCell>
        <mxCell id="77e6c97f196da883-29" parent="77e6c97f196da883-4" style="edgeStyle=orthogonalEdgeStyle;rounded=1;html=1;labelBackgroundColor=none;startArrow=none;startFill=0;startSize=5;endArrow=classicThin;endFill=1;endSize=5;jettySize=auto;orthogonalLoop=1;strokeWidth=1;fontFamily=Verdana;fontSize=8" edge="1" source="77e6c97f196da883-12" target="77e6c97f196da883-13">
          <mxGeometry as="geometry" relative="1" />
        </mxCell>
        <mxCell id="77e6c97f196da883-5" value="Lane 4" parent="77e6c97f196da883-1" vertex="1" style="swimlane;html=1;startSize=20;">
          <mxGeometry as="geometry" x="480" y="20" width="160" height="730" />
        </mxCell>
        <mxCell id="77e6c97f196da883-15" value="" parent="77e6c97f196da883-5" vertex="1" style="rounded=1;whiteSpace=wrap;html=1;shadow=0;labelBackgroundColor=none;strokeWidth=1;fontFamily=Verdana;fontSize=8;align=center;">
          <mxGeometry as="geometry" x="30" y="240" width="100" height="60" />
        </mxCell>
        <mxCell id="77e6c97f196da883-16" value="" parent="77e6c97f196da883-5" vertex="1" style="rhombus;whiteSpace=wrap;html=1;rounded=0;shadow=0;labelBackgroundColor=none;strokeWidth=1;fontFamily=Verdana;fontSize=8;align=center;">
          <mxGeometry as="geometry" x="40" y="320" width="80" height="60" />
        </mxCell>
        <mxCell id="77e6c97f196da883-17" value="" parent="77e6c97f196da883-5" vertex="1" style="rounded=1;whiteSpace=wrap;html=1;shadow=0;labelBackgroundColor=none;strokeWidth=1;fontFamily=Verdana;fontSize=8;align=center;">
          <mxGeometry as="geometry" x="30" y="400" width="100" height="60" />
        </mxCell>
        <mxCell id="77e6c97f196da883-19" value="" parent="77e6c97f196da883-5" vertex="1" style="rounded=1;whiteSpace=wrap;html=1;shadow=0;labelBackgroundColor=none;strokeWidth=1;fontFamily=Verdana;fontSize=8;align=center;">
          <mxGeometry as="geometry" x="30" y="560" width="100" height="60" />
        </mxCell>
        <mxCell id="77e6c97f196da883-20" value="" parent="77e6c97f196da883-5" vertex="1" style="rhombus;whiteSpace=wrap;html=1;rounded=0;shadow=0;labelBackgroundColor=none;strokeWidth=1;fontFamily=Verdana;fontSize=8;align=center;">
          <mxGeometry as="geometry" x="40" y="640" width="80" height="60" />
        </mxCell>
        <mxCell id="77e6c97f196da883-34" parent="77e6c97f196da883-5" style="edgeStyle=orthogonalEdgeStyle;rounded=1;html=1;labelBackgroundColor=none;startArrow=none;startFill=0;startSize=5;endArrow=classicThin;endFill=1;endSize=5;jettySize=auto;orthogonalLoop=1;strokeColor=#000000;strokeWidth=1;fontFamily=Verdana;fontSize=8;fontColor=#000000;" edge="1" source="77e6c97f196da883-15" target="77e6c97f196da883-16">
          <mxGeometry as="geometry" relative="1" />
        </mxCell>
        <mxCell id="77e6c97f196da883-35" parent="77e6c97f196da883-5" style="edgeStyle=orthogonalEdgeStyle;rounded=1;html=1;labelBackgroundColor=none;startArrow=none;startFill=0;startSize=5;endArrow=classicThin;endFill=1;endSize=5;jettySize=auto;orthogonalLoop=1;strokeWidth=1;fontFamily=Verdana;fontSize=8" edge="1" source="77e6c97f196da883-16" target="77e6c97f196da883-17">
          <mxGeometry as="geometry" relative="1" />
        </mxCell>
        <mxCell id="77e6c97f196da883-36" parent="77e6c97f196da883-5" style="edgeStyle=orthogonalEdgeStyle;rounded=1;html=1;labelBackgroundColor=none;startArrow=none;startFill=0;startSize=5;endArrow=classicThin;endFill=1;endSize=5;jettySize=auto;orthogonalLoop=1;strokeWidth=1;fontFamily=Verdana;fontSize=8" edge="1" source="77e6c97f196da883-19" target="77e6c97f196da883-20">
          <mxGeometry as="geometry" relative="1" />
        </mxCell>
      </root>
    </mxGraphModel>
  </diagram>
</mxfile>
